<svg width="20" height="20" viewBox="0 0 20 20" fill="none" xmlns="http://www.w3.org/2000/svg">
<path d="M7 4C7 3.20435 7.31607 2.44129 7.87868 1.87868C8.44129 1.31607 9.20435 1 10 1C10.7956 1 11.5587 1.31607 12.1213 1.87868C12.6839 2.44129 13 3.20435 13 4V8.8C13 9.59565 12.6839 10.3587 12.1213 10.9213C11.5587 11.4839 10.7956 11.8 10 11.8C9.20435 11.8 8.44129 11.4839 7.87868 10.9213C7.31607 10.3587 7 9.59565 7 8.8V4Z" fill="#323232"/>
<path d="M3.40002 5.79999V8.79999C3.39979 10.4467 4.01516 12.034 5.12529 13.2503C6.23542 14.4666 7.76012 15.2239 9.40002 15.3736V17.8H7.00002V19H13V17.8H10.6V15.3736C12.2399 15.2239 13.7646 14.4666 14.8748 13.2503C15.9849 12.034 16.6003 10.4467 16.6 8.79999V5.79999H15.4V8.79999C15.4 10.2322 14.8311 11.6057 13.8184 12.6184C12.8057 13.6311 11.4322 14.2 10 14.2C8.56786 14.2 7.19434 13.6311 6.18165 12.6184C5.16895 11.6057 4.60002 10.2322 4.60002 8.79999V5.79999H3.40002Z" fill="#323232"/>
</svg>
