<svg width="20" height="20" viewBox="0 0 20 20" fill="none" xmlns="http://www.w3.org/2000/svg">
<g clip-path="url(#clip0_28_170)">
<path d="M9.16824 14.3596H5.29206C4.92598 14.3596 4.6189 14.2361 4.37083 13.9891C4.12275 13.742 3.99914 13.4367 4 13.073V7.92643C4 7.56188 4.12404 7.25609 4.37212 7.00906C4.62019 6.76202 4.92684 6.63894 5.29206 6.63979H9.16824L13.432 2.39389C13.8412 1.98646 14.3098 1.8951 14.8378 2.11984C15.3658 2.34457 15.6294 2.74686 15.6285 3.3267V17.6727C15.6285 18.2517 15.3645 18.654 14.8365 18.8796C14.3085 19.1052 13.8403 19.0138 13.432 18.6055L9.16824 14.3596Z" fill="#323232"/>
<path d="M20 2L3 19" stroke="#E25050" stroke-linecap="round"/>
</g>
<defs>
<clipPath id="clip0_28_170">
<rect width="20" height="20" fill="white"/>
</clipPath>
</defs>
</svg>
