<svg width="60" height="60" viewBox="0 0 60 60" fill="none" xmlns="http://www.w3.org/2000/svg">
<path d="M27.4496 21.0649C26.7755 21.0649 26.2279 21.611 26.2279 22.2867C26.2279 22.7638 26.5001 23.1754 26.8988 23.3771V28.7957H27.9044V23.4187C28.3527 23.2378 28.6698 22.7991 28.6698 22.2867C28.6698 21.6126 28.1237 21.0649 27.448 21.0649H27.4496Z" fill="black"/>
<path d="M31.7543 21.0649C31.0802 21.0649 30.5326 21.611 30.5326 22.2867C30.5326 22.7638 30.8048 23.1754 31.2035 23.3771V28.7957H32.2091V23.4187C32.6574 23.2378 32.9745 22.7991 32.9745 22.2867C32.9745 21.6126 32.4284 21.0649 31.7527 21.0649H31.7543Z" fill="black"/>
<path d="M37.2808 22.2867C37.2808 21.6126 36.7348 21.0649 36.059 21.0649C35.3833 21.0649 34.8373 21.611 34.8373 22.2867C34.8373 22.7943 35.1463 23.2282 35.5867 23.4139V28.7957H36.5923V23.3835C36.999 23.185 37.2792 22.7687 37.2792 22.2851L37.2808 22.2867Z" fill="black"/>
<path d="M50.6878 20.0369C49.386 21.0553 47.8632 22.1201 46.113 23.1321C45.2068 23.6557 44.3245 24.1152 43.4758 24.5219L26.8262 24.5972C24.498 24.6084 22.3108 25.5227 20.6679 27.172C19.8529 27.9902 19.2204 28.9413 18.7897 29.9773H11.2399C10.8091 29.4121 10.1302 29.0486 9.36482 29.0486C8.06302 29.0486 7.00781 30.1038 7.00781 31.4056C7.00781 32.7074 8.06302 33.7626 9.36482 33.7626C10.1302 33.7626 10.8091 33.3975 11.2399 32.8339H18.1364C18.1268 33.002 18.1219 33.1718 18.1219 33.3415V34.1918C18.1219 38.5455 21.6639 42.0874 26.0176 42.0874H37.3863C40.7249 42.0874 43.4406 39.3717 43.4406 36.0332C43.4406 32.6946 40.7249 29.9789 37.3863 29.9789H22.0338C22.2291 29.7003 22.4501 29.4361 22.6951 29.1895C23.8015 28.0783 25.273 27.4634 26.8406 27.4554L43.732 27.3785C44.7568 27.8653 45.8328 28.4449 46.9377 29.1383C48.366 30.0334 49.6133 30.9733 50.6846 31.878C50.8143 31.9885 51 31.8828 51 31.697V20.221C51 20.0401 50.8207 19.9328 50.6894 20.0369H50.6878ZM37.3831 32.8339C39.1461 32.8339 40.5808 34.2686 40.5808 36.0316C40.5808 37.7945 39.1461 39.2292 37.3831 39.2292H26.0144C23.2363 39.2292 20.9753 36.9683 20.9753 34.1902V33.3399C20.9753 33.1702 20.9833 33.0004 20.9962 32.8323H37.3815L37.3831 32.8339Z" fill="black"/>
</svg>
