<svg width="60" height="60" viewBox="0 0 60 60" fill="none" xmlns="http://www.w3.org/2000/svg">
<path fill-rule="evenodd" clip-rule="evenodd" d="M46.2906 17.5552C45.8253 16.9396 44.9413 16.8171 44.3272 17.2824L26.8777 30.4728C26.4882 30.7674 21.9782 34.4928 18.8334 37.3473C18.3753 37.763 17.8094 37.9337 17.1968 37.8403C16.8759 37.7907 16.5637 37.852 16.3172 38.0387C15.5091 38.6499 12.1047 41.0697 13.2235 42.5517C14.3437 44.0336 17.6008 41.4183 18.4089 40.8072C18.6554 40.6205 18.7998 40.3375 18.8392 40.0151C18.9165 39.3996 19.2345 38.9022 19.7596 38.5755C23.3638 36.3277 28.1788 33.005 28.5682 32.7103L46.0178 19.5185C46.6333 19.0532 46.7559 18.1693 46.2906 17.5537V17.5552Z" fill="url(#paint0_radial_22_95)"/>
<path fill-rule="evenodd" clip-rule="evenodd" d="M13.281 17.5552C13.7463 16.9396 14.6302 16.8171 15.2443 17.2824L32.6938 30.4728C33.0833 30.7674 37.5934 34.4928 40.7382 37.3473C41.1962 37.763 41.7621 37.9337 42.3748 37.8403C42.6956 37.7907 43.0078 37.852 43.2543 38.0387C44.0624 38.6499 47.4668 41.0697 46.3481 42.5517C45.2278 44.0336 41.9707 41.4183 41.1626 40.8072C40.9161 40.6205 40.7717 40.3375 40.7323 40.0151C40.655 39.3996 40.337 38.9022 39.8119 38.5755C36.2077 36.3277 31.3927 33.005 31.0033 32.7103L13.5552 19.5185C12.9396 19.0532 12.8171 18.1693 13.2824 17.5537L13.281 17.5552Z" fill="url(#paint1_radial_22_95)"/>
<defs>
<radialGradient id="paint0_radial_22_95" cx="0" cy="0" r="1" gradientUnits="userSpaceOnUse" gradientTransform="translate(29.7862 30.0002) scale(15.0137)">
<stop offset="0.57" stop-color="#161412"/>
<stop offset="0.8" stop-color="#161412"/>
<stop offset="1" stop-color="#161412"/>
</radialGradient>
<radialGradient id="paint1_radial_22_95" cx="0" cy="0" r="1" gradientUnits="userSpaceOnUse" gradientTransform="translate(29.7868 30.0002) scale(15.0137 15.0137)">
<stop offset="0.57" stop-color="#161412"/>
<stop offset="0.8" stop-color="#161412"/>
<stop offset="1" stop-color="#161412"/>
</radialGradient>
</defs>
</svg>
