<svg width="34" height="34" viewBox="0 0 34 34" fill="none" xmlns="http://www.w3.org/2000/svg">
<g clip-path="url(#clip0_138_227)">
<rect width="34" height="34" rx="4" fill="#5A50E2"/>
<path d="M23.0234 17.8492C23.4924 17.8492 23.8726 17.469 23.8726 17C23.8726 16.531 23.4924 16.1508 23.0234 16.1508V17.8492ZM9.40183 16.3995C9.0702 16.7312 9.0702 17.2688 9.40183 17.6005L14.8061 23.0048C15.1378 23.3364 15.6755 23.3364 16.0071 23.0048C16.3387 22.6731 16.3387 22.1355 16.0071 21.8038L11.2033 17L16.0071 12.1962C16.3387 11.8645 16.3387 11.3269 16.0071 10.9952C15.6755 10.6636 15.1378 10.6636 14.8061 10.9952L9.40183 16.3995ZM23.0234 16.1508H10.0023V17.8492H23.0234V16.1508Z" fill="white"/>
</g>
<defs>
<clipPath id="clip0_138_227">
<rect width="34" height="34" rx="4" fill="white"/>
</clipPath>
</defs>
</svg>
