<svg width="60" height="60" viewBox="0 0 60 60" fill="none" xmlns="http://www.w3.org/2000/svg">
<g clip-path="url(#clip0_22_91)">
<mask id="path-1-inside-1_22_91" fill="white">
<path d="M41.8838 24.0837L42.2065 24.0878C42.6286 24.0918 42.9776 23.753 42.9817 23.3355L43 21.7564C43.004 21.3369 42.6631 20.99 42.243 20.9859L41.9204 20.9819C41.4983 20.9779 41.1492 21.3167 41.1451 21.7342V21.9782L39.5765 21.9601L39.6373 16.7608C39.6455 16.0488 38.9656 15.5225 38.2736 15.714C37.6384 15.8895 37.0033 16.1114 36.3721 16.1537C36.2078 16.1658 36.0434 16.1315 35.8932 16.069C34.6289 15.5366 32.6868 14.3729 30.2699 14.3789C28.1168 14.383 26.3431 15.4156 25.1296 15.9137C24.9409 15.9903 24.7318 16.0105 24.5309 15.9742L21.8481 15.4902C21.1906 15.3712 20.5859 15.8693 20.5778 16.5308L20.5169 21.7221L19.0294 21.7039V21.4599C19.0375 21.0404 18.6966 20.6935 18.2745 20.6895L17.9518 20.6854C17.5297 20.6814 17.1806 21.0202 17.1766 21.4377L17.1583 23.0168C17.1543 23.4363 17.4952 23.7832 17.9153 23.7873L18.2379 23.7913C18.66 23.7953 19.0091 23.4565 19.0131 23.039V22.9624L20.5007 22.9805L20.4377 28.2323L18.9502 28.2141V27.9701C18.9584 27.5506 18.6174 27.2037 18.1953 27.1997L17.8727 27.1956C17.4505 27.1916 17.1015 27.5304 17.0974 27.9479L17.0792 29.5271C17.0751 29.9465 17.4161 30.2934 17.8361 30.2975L18.1588 30.3015C18.5809 30.3055 18.9299 29.9667 18.934 29.5492V29.4726L20.4235 29.4908L20.3606 34.7425L18.8731 34.7243V34.4803C18.8812 34.0608 18.5403 33.7139 18.1182 33.7099L17.7955 33.7058C17.3734 33.7018 17.0244 34.0406 17.0203 34.4581L17 36.0413C16.996 36.4608 17.3369 36.8077 17.757 36.8117L18.0796 36.8157C18.5017 36.8198 18.8508 36.4809 18.8549 36.0635V35.9868L20.3444 36.005L20.2754 41.8194C20.2693 42.4083 20.7482 42.8903 21.3408 42.8903C23.7598 42.8903 25.712 44.8547 25.6836 47.2587L25.6268 52.0869L25.6349 60.4425C25.6349 60.5251 25.7019 60.5917 25.7871 60.5917H26.6009C26.6841 60.5917 26.7531 60.5251 26.7531 60.4404V52.099L29.0888 52.1272V63.2276C29.0888 63.3103 29.1558 63.3789 29.241 63.3789H30.0548C30.138 63.3789 30.207 63.3124 30.207 63.2276V52.1413L32.626 52.1696V60.4425C32.626 60.5251 32.6929 60.5937 32.7782 60.5937H33.5919C33.6751 60.5937 33.7441 60.5272 33.7441 60.4425V52.1817L33.801 47.4563C33.8294 45.0362 35.812 43.088 38.2493 43.088H38.2615C38.852 43.088 39.3329 42.616 39.339 42.0291L39.408 36.2369L40.9747 36.2551V36.3317C40.9686 36.7512 41.3095 37.0981 41.7316 37.1021L42.0543 37.1062C42.4764 37.1102 42.8254 36.7714 42.8295 36.3539L42.8478 34.7747C42.8518 34.3553 42.5109 34.0084 42.0908 34.0043L41.7682 34.0003C41.3461 33.9963 40.997 34.3331 40.9929 34.7526V34.9966L39.4243 34.9784L39.4872 29.7267L41.0538 29.7449V29.8215C41.0477 30.241 41.3887 30.5879 41.8108 30.5919L42.1334 30.596C42.5555 30.6 42.9046 30.2612 42.9086 29.8437L42.9269 28.2645C42.931 27.845 42.59 27.4982 42.17 27.4941L41.8473 27.4901C41.4252 27.4861 41.0761 27.8249 41.0721 28.2424V28.4864L39.5034 28.4682L39.5663 23.2165L41.133 23.2347V23.3113C41.1269 23.7308 41.4678 24.0777 41.8899 24.0817L41.8838 24.0837ZM23.845 36.6241C23.0637 36.6141 22.4387 35.9788 22.4488 35.2023C22.459 34.4258 23.0982 33.8047 23.8795 33.8148C24.6608 33.8248 25.2858 34.4601 25.2757 35.2366C25.2655 36.0131 24.6263 36.6342 23.845 36.6241ZM23.9201 30.2309C23.1388 30.2208 22.5138 29.5855 22.5239 28.8091C22.5341 28.0326 23.1733 27.4114 23.9546 27.4215C24.7359 27.4316 25.3609 28.0669 25.3508 28.8434C25.3406 29.6198 24.7014 30.241 23.9201 30.2309ZM23.9952 23.8377C23.2139 23.8276 22.5888 23.1923 22.599 22.4158C22.6091 21.6394 23.2484 21.0182 24.0297 21.0283C24.811 21.0384 25.436 21.6737 25.4259 22.4501C25.4157 23.2266 24.7765 23.8478 23.9952 23.8377ZM35.9805 36.7673C35.1992 36.7572 34.5741 36.122 34.5843 35.3455C34.5944 34.569 35.2337 33.9479 36.015 33.9579C36.7963 33.968 37.4213 34.6033 37.4112 35.3798C37.401 36.1562 36.7618 36.7774 35.9805 36.7673ZM36.0556 30.3741C35.2743 30.364 34.6492 29.7287 34.6594 28.9523C34.6695 28.1758 35.3088 27.5546 36.0901 27.5647C36.8714 27.5748 37.4964 28.2101 37.4862 28.9866C37.4761 29.763 36.8369 30.3842 36.0556 30.3741ZM36.1306 23.9809C35.3493 23.9708 34.7243 23.3355 34.7345 22.559C34.7446 21.7826 35.3838 21.1614 36.1651 21.1715C36.9464 21.1816 37.5715 21.8169 37.5613 22.5933C37.5512 23.3698 36.9119 23.991 36.1306 23.9809Z"/>
</mask>
<path d="M41.8838 24.0837L42.2065 24.0878C42.6286 24.0918 42.9776 23.753 42.9817 23.3355L43 21.7564C43.004 21.3369 42.6631 20.99 42.243 20.9859L41.9204 20.9819C41.4983 20.9779 41.1492 21.3167 41.1451 21.7342V21.9782L39.5765 21.9601L39.6373 16.7608C39.6455 16.0488 38.9656 15.5225 38.2736 15.714C37.6384 15.8895 37.0033 16.1114 36.3721 16.1537C36.2078 16.1658 36.0434 16.1315 35.8932 16.069C34.6289 15.5366 32.6868 14.3729 30.2699 14.3789C28.1168 14.383 26.3431 15.4156 25.1296 15.9137C24.9409 15.9903 24.7318 16.0105 24.5309 15.9742L21.8481 15.4902C21.1906 15.3712 20.5859 15.8693 20.5778 16.5308L20.5169 21.7221L19.0294 21.7039V21.4599C19.0375 21.0404 18.6966 20.6935 18.2745 20.6895L17.9518 20.6854C17.5297 20.6814 17.1806 21.0202 17.1766 21.4377L17.1583 23.0168C17.1543 23.4363 17.4952 23.7832 17.9153 23.7873L18.2379 23.7913C18.66 23.7953 19.0091 23.4565 19.0131 23.039V22.9624L20.5007 22.9805L20.4377 28.2323L18.9502 28.2141V27.9701C18.9584 27.5506 18.6174 27.2037 18.1953 27.1997L17.8727 27.1956C17.4505 27.1916 17.1015 27.5304 17.0974 27.9479L17.0792 29.5271C17.0751 29.9465 17.4161 30.2934 17.8361 30.2975L18.1588 30.3015C18.5809 30.3055 18.9299 29.9667 18.934 29.5492V29.4726L20.4235 29.4908L20.3606 34.7425L18.8731 34.7243V34.4803C18.8812 34.0608 18.5403 33.7139 18.1182 33.7099L17.7955 33.7058C17.3734 33.7018 17.0244 34.0406 17.0203 34.4581L17 36.0413C16.996 36.4608 17.3369 36.8077 17.757 36.8117L18.0796 36.8157C18.5017 36.8198 18.8508 36.4809 18.8549 36.0635V35.9868L20.3444 36.005L20.2754 41.8194C20.2693 42.4083 20.7482 42.8903 21.3408 42.8903C23.7598 42.8903 25.712 44.8547 25.6836 47.2587L25.6268 52.0869L25.6349 60.4425C25.6349 60.5251 25.7019 60.5917 25.7871 60.5917H26.6009C26.6841 60.5917 26.7531 60.5251 26.7531 60.4404V52.099L29.0888 52.1272V63.2276C29.0888 63.3103 29.1558 63.3789 29.241 63.3789H30.0548C30.138 63.3789 30.207 63.3124 30.207 63.2276V52.1413L32.626 52.1696V60.4425C32.626 60.5251 32.6929 60.5937 32.7782 60.5937H33.5919C33.6751 60.5937 33.7441 60.5272 33.7441 60.4425V52.1817L33.801 47.4563C33.8294 45.0362 35.812 43.088 38.2493 43.088H38.2615C38.852 43.088 39.3329 42.616 39.339 42.0291L39.408 36.2369L40.9747 36.2551V36.3317C40.9686 36.7512 41.3095 37.0981 41.7316 37.1021L42.0543 37.1062C42.4764 37.1102 42.8254 36.7714 42.8295 36.3539L42.8478 34.7747C42.8518 34.3553 42.5109 34.0084 42.0908 34.0043L41.7682 34.0003C41.3461 33.9963 40.997 34.3331 40.9929 34.7526V34.9966L39.4243 34.9784L39.4872 29.7267L41.0538 29.7449V29.8215C41.0477 30.241 41.3887 30.5879 41.8108 30.5919L42.1334 30.596C42.5555 30.6 42.9046 30.2612 42.9086 29.8437L42.9269 28.2645C42.931 27.845 42.59 27.4982 42.17 27.4941L41.8473 27.4901C41.4252 27.4861 41.0761 27.8249 41.0721 28.2424V28.4864L39.5034 28.4682L39.5663 23.2165L41.133 23.2347V23.3113C41.1269 23.7308 41.4678 24.0777 41.8899 24.0817L41.8838 24.0837ZM23.845 36.6241C23.0637 36.6141 22.4387 35.9788 22.4488 35.2023C22.459 34.4258 23.0982 33.8047 23.8795 33.8148C24.6608 33.8248 25.2858 34.4601 25.2757 35.2366C25.2655 36.0131 24.6263 36.6342 23.845 36.6241ZM23.9201 30.2309C23.1388 30.2208 22.5138 29.5855 22.5239 28.8091C22.5341 28.0326 23.1733 27.4114 23.9546 27.4215C24.7359 27.4316 25.3609 28.0669 25.3508 28.8434C25.3406 29.6198 24.7014 30.241 23.9201 30.2309ZM23.9952 23.8377C23.2139 23.8276 22.5888 23.1923 22.599 22.4158C22.6091 21.6394 23.2484 21.0182 24.0297 21.0283C24.811 21.0384 25.436 21.6737 25.4259 22.4501C25.4157 23.2266 24.7765 23.8478 23.9952 23.8377ZM35.9805 36.7673C35.1992 36.7572 34.5741 36.122 34.5843 35.3455C34.5944 34.569 35.2337 33.9479 36.015 33.9579C36.7963 33.968 37.4213 34.6033 37.4112 35.3798C37.401 36.1562 36.7618 36.7774 35.9805 36.7673ZM36.0556 30.3741C35.2743 30.364 34.6492 29.7287 34.6594 28.9523C34.6695 28.1758 35.3088 27.5546 36.0901 27.5647C36.8714 27.5748 37.4964 28.2101 37.4862 28.9866C37.4761 29.763 36.8369 30.3842 36.0556 30.3741ZM36.1306 23.9809C35.3493 23.9708 34.7243 23.3355 34.7345 22.559C34.7446 21.7826 35.3838 21.1614 36.1651 21.1715C36.9464 21.1816 37.5715 21.8169 37.5613 22.5933C37.5512 23.3698 36.9119 23.991 36.1306 23.9809Z" fill="black" stroke="black" stroke-width="2" mask="url(#path-1-inside-1_22_91)"/>
</g>
<defs>
<clipPath id="clip0_22_91">
<rect width="60" height="60" fill="white"/>
</clipPath>
</defs>
</svg>
