<svg width="34" height="34" viewBox="0 0 34 34" fill="none" xmlns="http://www.w3.org/2000/svg">
<g clip-path="url(#clip0_138_230)">
<rect width="34" height="34" rx="4" fill="#A8DB10"/>
<path d="M18.0758 9C18.0758 8.531 17.6956 8.1508 17.2266 8.1508C16.7576 8.1508 16.3774 8.531 16.3774 9L18.0758 9ZM16.6261 22.6216C16.9577 22.9532 17.4954 22.9532 17.827 22.6216L23.2313 17.2173C23.563 16.8857 23.563 16.348 23.2313 16.0163C22.8997 15.6847 22.362 15.6847 22.0304 16.0163L17.2266 20.8202L12.4227 16.0163C12.0911 15.6847 11.5534 15.6847 11.2218 16.0163C10.8901 16.348 10.8901 16.8857 11.2218 17.2173L16.6261 22.6216ZM16.3774 9L16.3774 22.0211L18.0758 22.0211L18.0758 9L16.3774 9Z" fill="black"/>
<path d="M11 25.6826H23.455" stroke="black" stroke-width="1.69841" stroke-linecap="round"/>
</g>
<defs>
<clipPath id="clip0_138_230">
<rect width="34" height="34" rx="4" fill="white"/>
</clipPath>
</defs>
</svg>
